# xmcd
#
# Track frame offsets:
#	150
#	16578
#	33292
#	52324
#	71331
#	89279
#	111310
#	126879
#	153404
#	171622
#	191338
#	215942
#	239767
#	258585
#	272280
#	289316
#	303359
#
# Disc length: 4430 seconds
#
# Revision: 0
# Processed by: cddbd v1.5.2PL0 Copyright (c) Steve Scherf et al.
# Submitted via: EasyCDDAExtractor 10.0.2.1
#
DISCID=fe114c11
DTITLE=Brian Leneschmidt and Edge Of Soul
DYEAR=2006
DGENRE=Blues
TTITLE0=Lady Love
TTITLE1=Wasting Time
TTITLE2=Sister Blue
TTITLE3=Dealer's Gold
TTITLE4=The Way She Walks
TTITLE5=A Woman In Love
TTITLE6=All Over You
TTITLE7=A Better Way
TTITLE8=Gypsy Rain
TTITLE9=Smoke and Mirrors
TTITLE10=Through The Rain
TTITLE11=Blood And The Dragon
TTITLE12=Stand Or Fall
TTITLE13=I Know A Lot About You
TTITLE14=Moanin' And Groanin'
TTITLE15=Angel For John
TTITLE16=Don't Forget Yesterday
EXTD=
EXTT0=
EXTT1=
EXTT2=
EXTT3=
EXTT4=
EXTT5=
EXTT6=
EXTT7=
EXTT8=
EXTT9=
EXTT10=
EXTT11=
EXTT12=
EXTT13=
EXTT14=
EXTT15=
EXTT16=
PLAYORDER=
